<svg width="134" height="33" viewBox="0 0 134 33" fill="none" xmlns="http://www.w3.org/2000/svg">
<path d="M12.5 3.23242C12.1836 3.23242 11.8145 3.29688 11.3926 3.42578C10.9707 3.55469 10.5371 3.80078 10.0918 4.16406C9.6582 4.51562 9.23047 5.01367 8.80859 5.6582C8.38672 6.30273 8.00586 7.14062 7.66602 8.17188C7.33789 9.19141 7.06836 10.4336 6.85742 11.8984C6.6582 13.3633 6.55859 15.0918 6.55859 17.084C6.55859 18.9824 6.6582 20.6289 6.85742 22.0234C7.06836 23.418 7.34375 24.6074 7.68359 25.5918C8.03516 26.5645 8.43359 27.3613 8.87891 27.9824C9.32422 28.6035 9.79297 29.084 10.2852 29.4238C10.7773 29.7754 11.2695 30.0156 11.7617 30.1445C12.2539 30.2734 12.7168 30.3379 13.1504 30.3379C13.6074 30.3379 14.0703 30.2793 14.5391 30.1621C15.0078 30.0449 15.4648 29.875 15.9102 29.6523C16.3672 29.4297 16.8008 29.1602 17.2109 28.8438C17.6328 28.5273 18.0195 28.1641 18.3711 27.7539L19.1621 28.5449C18.8105 28.9785 18.3887 29.418 17.8965 29.8633C17.4043 30.3203 16.8301 30.7305 16.1738 31.0938C15.5293 31.4688 14.8027 31.7734 13.9941 32.0078C13.1855 32.2422 12.2891 32.3594 11.3047 32.3594C9.76953 32.3594 8.33984 32.0664 7.01562 31.4805C5.70312 30.8945 4.55469 29.9805 3.57031 28.7383C2.59766 27.5078 1.83008 25.9258 1.26758 23.9922C0.716797 22.0586 0.441406 19.7441 0.441406 17.0488C0.441406 14.5176 0.734375 12.2969 1.32031 10.3867C1.90625 8.47656 2.70312 6.88281 3.71094 5.60547C4.71875 4.31641 5.90234 3.34961 7.26172 2.70508C8.62109 2.04883 10.0684 1.7207 11.6035 1.7207C12.623 1.7207 13.5488 1.82031 14.3809 2.01953C15.2246 2.20703 15.9512 2.48828 16.5605 2.86328C17.1699 3.22656 17.6387 3.68359 17.9668 4.23438C18.3066 4.77344 18.4766 5.38867 18.4766 6.08008C18.4766 6.39648 18.4238 6.73047 18.3184 7.08203C18.2129 7.42187 18.0488 7.73828 17.8262 8.03125C17.6152 8.3125 17.3516 8.54687 17.0352 8.73438C16.7188 8.91016 16.3496 8.99805 15.9277 8.99805C15.5527 8.99805 15.2598 8.91602 15.0488 8.75195C14.8496 8.58789 14.6973 8.37109 14.5918 8.10156C14.498 7.83203 14.4336 7.52734 14.3984 7.1875C14.375 6.83594 14.3574 6.47852 14.3457 6.11523C14.334 5.75195 14.3047 5.40039 14.2578 5.06055C14.2227 4.70898 14.1406 4.39844 14.0117 4.12891C13.8945 3.85938 13.7188 3.64258 13.4844 3.47852C13.25 3.31445 12.9219 3.23242 12.5 3.23242ZM26.4219 13.4629C26.8672 12.7832 27.3418 12.168 27.8457 11.6172C28.0566 11.3828 28.2852 11.1543 28.5312 10.9316C28.7773 10.709 29.0293 10.5098 29.2871 10.334C29.5566 10.1582 29.832 10.0176 30.1133 9.91211C30.3945 9.80664 30.6758 9.75391 30.957 9.75391C31.5547 9.75391 32.0234 9.93555 32.3633 10.2988C32.7031 10.6504 32.873 11.1484 32.873 11.793C32.873 12.1914 32.8379 12.5781 32.7676 12.9531C32.709 13.3164 32.5859 13.7617 32.3984 14.2891H31.9062C31.8359 13.9258 31.6719 13.627 31.4141 13.3926C31.1562 13.1465 30.7812 13.0234 30.2891 13.0234C29.9258 13.0234 29.5684 13.0938 29.2168 13.2344C28.8652 13.3633 28.5195 13.5273 28.1797 13.7266C27.8516 13.9258 27.5352 14.1426 27.2305 14.377C26.9375 14.6113 26.668 14.834 26.4219 15.0449V26.4531C26.4219 26.6055 26.3984 26.7871 26.3516 26.998C26.3047 27.209 26.1875 27.4082 26 27.5957C25.8242 27.7832 25.5547 27.9414 25.1914 28.0703C24.8398 28.2109 24.3535 28.2812 23.7324 28.2812C23.1113 28.2812 22.6191 28.2051 22.2559 28.0527C21.9043 27.9121 21.6348 27.7422 21.4473 27.543C21.2598 27.3438 21.1426 27.1387 21.0957 26.9277C21.0488 26.7168 21.0254 26.5469 21.0254 26.418V12.8477C21.0254 12.5078 20.9434 12.2148 20.7793 11.9688C20.627 11.7109 20.3633 11.582 19.9883 11.582C19.7891 11.582 19.6191 11.6172 19.4785 11.6875C19.3379 11.7578 19.1855 11.8574 19.0215 11.9863L18.6523 11.5469C18.9219 11.3242 19.2207 11.1074 19.5488 10.8965C19.8887 10.6738 20.252 10.4805 20.6387 10.3164C21.0254 10.1523 21.4414 10.0176 21.8867 9.91211C22.332 9.80664 22.8008 9.75391 23.293 9.75391C23.7969 9.75391 24.2246 9.82422 24.5762 9.96484C24.9395 10.0938 25.2324 10.2695 25.4551 10.4922C25.6895 10.7031 25.8711 10.9434 26 11.2129C26.1289 11.4824 26.2227 11.7578 26.2812 12.0391C26.3516 12.3086 26.3926 12.5723 26.4043 12.8301C26.416 13.0762 26.4219 13.2871 26.4219 13.4629ZM40.7305 26.418C40.7305 26.5703 40.7012 26.7578 40.6426 26.9805C40.5957 27.1914 40.4727 27.3965 40.2734 27.5957C40.0859 27.7832 39.8105 27.9414 39.4473 28.0703C39.084 28.2109 38.5918 28.2812 37.9707 28.2812C37.3496 28.2812 36.8633 28.2051 36.5117 28.0527C36.1602 27.9121 35.8965 27.7422 35.7207 27.543C35.5449 27.3438 35.4336 27.1387 35.3867 26.9277C35.3516 26.7168 35.334 26.5469 35.334 26.418V12.8477C35.334 12.5078 35.252 12.2148 35.0879 11.9688C34.9355 11.7109 34.6719 11.582 34.2969 11.582C34.0977 11.582 33.9277 11.6172 33.7871 11.6875C33.6465 11.7578 33.4941 11.8574 33.3301 11.9863L32.9609 11.5469C33.2305 11.3242 33.5293 11.1074 33.8574 10.8965C34.1973 10.6738 34.5605 10.4805 34.9473 10.3164C35.334 10.1523 35.75 10.0176 36.1953 9.91211C36.6406 9.80664 37.1094 9.75391 37.6016 9.75391C38.3633 9.75391 38.9551 9.85938 39.377 10.0703C39.7988 10.2695 40.1094 10.5215 40.3086 10.8262C40.5078 11.1191 40.625 11.4355 40.6602 11.7754C40.707 12.1152 40.7305 12.4141 40.7305 12.6719V26.418ZM34.7891 5.74609C34.7891 5.41797 34.8594 5.10742 35 4.81445C35.1523 4.50977 35.3574 4.24609 35.6152 4.02344C35.8848 3.80078 36.1895 3.625 36.5293 3.49609C36.8809 3.36719 37.2617 3.30273 37.6719 3.30273C38.0703 3.30273 38.4395 3.36719 38.7793 3.49609C39.1309 3.625 39.4355 3.80078 39.6934 4.02344C39.9512 4.24609 40.1504 4.50977 40.291 4.81445C40.4434 5.10742 40.5195 5.41797 40.5195 5.74609C40.5195 6.08594 40.4434 6.40234 40.291 6.69531C40.1504 6.98828 39.9512 7.24609 39.6934 7.46875C39.4355 7.67969 39.1309 7.84961 38.7793 7.97852C38.4395 8.10742 38.0703 8.17188 37.6719 8.17188C37.2617 8.17188 36.8809 8.10742 36.5293 7.97852C36.1895 7.84961 35.8848 7.67969 35.6152 7.46875C35.3574 7.24609 35.1523 6.98828 35 6.69531C34.8594 6.40234 34.7891 6.08594 34.7891 5.74609ZM50.8203 11.1602C50.5508 11.1602 50.293 11.1953 50.0469 11.2656C49.8125 11.3359 49.6016 11.4531 49.4141 11.6172C49.2266 11.7695 49.0801 11.9688 48.9746 12.2148C48.8691 12.4492 48.8164 12.7305 48.8164 13.0586C48.8164 13.5156 48.9805 13.9727 49.3086 14.4297C49.6484 14.875 50.0645 15.3438 50.5566 15.8359C51.0605 16.3164 51.5996 16.8203 52.1738 17.3477C52.7598 17.8633 53.2988 18.4141 53.791 19C54.2949 19.5742 54.7109 20.1895 55.0391 20.8457C55.3789 21.502 55.5488 22.2051 55.5488 22.9551C55.5488 23.7988 55.4023 24.5488 55.1094 25.2051C54.8281 25.8613 54.418 26.418 53.8789 26.875C53.3516 27.332 52.707 27.6836 51.9453 27.9297C51.1953 28.1641 50.3574 28.2812 49.4316 28.2812C48.623 28.2812 47.8906 28.1699 47.2344 27.9473C46.5781 27.7129 45.9922 27.4316 45.4766 27.1035C44.9727 26.7637 44.5391 26.4062 44.1758 26.0312C43.8125 25.6562 43.5312 25.3164 43.332 25.0117L43.9473 24.5723C44.0996 24.748 44.293 24.9414 44.5273 25.1523C44.7617 25.3516 45.0195 25.5391 45.3008 25.7148C45.5938 25.8906 45.9043 26.0371 46.2324 26.1543C46.5605 26.2598 46.8945 26.3125 47.2344 26.3125C48.0781 26.3125 48.7695 26.1133 49.3086 25.7148C49.8477 25.3047 50.1172 24.7012 50.1172 23.9043C50.1172 23.459 49.9707 23.002 49.6777 22.5332C49.3848 22.0527 49.0156 21.5605 48.5703 21.0566C48.125 20.5527 47.6445 20.0312 47.1289 19.4922C46.6133 18.9531 46.1328 18.3965 45.6875 17.8223C45.2422 17.248 44.873 16.6562 44.5801 16.0469C44.2871 15.4375 44.1406 14.8047 44.1406 14.1484C44.1406 13.4102 44.2871 12.7656 44.5801 12.2148C44.8848 11.6641 45.2832 11.207 45.7754 10.8438C46.2793 10.4805 46.8477 10.2109 47.4805 10.0352C48.125 9.84766 48.7871 9.75391 49.4668 9.75391C50.252 9.75391 50.9668 9.82422 51.6113 9.96484C52.2559 10.1055 52.8066 10.3223 53.2637 10.6152C53.7324 10.8965 54.0898 11.2539 54.3359 11.6875C54.5938 12.1211 54.7227 12.625 54.7227 13.1992C54.7227 13.6445 54.5762 14.0312 54.2832 14.3594C53.9902 14.6875 53.5801 14.8516 53.0527 14.8516C52.5488 14.8516 52.1621 14.7461 51.8926 14.5352C51.6348 14.3125 51.5059 14.0137 51.5059 13.6387C51.5059 13.3926 51.5645 13.1992 51.6816 13.0586C51.8105 12.918 51.9512 12.8066 52.1035 12.7246C52.2559 12.6309 52.3906 12.5547 52.5078 12.4961C52.6367 12.4258 52.7012 12.3379 52.7012 12.2324C52.7012 11.9043 52.5254 11.6465 52.1738 11.459C51.8223 11.2598 51.3711 11.1602 50.8203 11.1602Z" fill="#101012"/>
<path d="M78.2598 15.9062H71.3164V25.6973C71.3164 26.5996 71.0762 27.2559 70.5957 27.666C70.127 28.0762 69.4062 28.2812 68.4336 28.2812C67.4492 28.2812 66.7227 28.0762 66.2539 27.666C65.7852 27.2559 65.5508 26.5996 65.5508 25.6973V15.9062H62.8086V14.3594H65.5508V3.30273C65.1758 3.33789 64.7422 3.4082 64.25 3.51367C63.7695 3.60742 63.2715 3.74805 62.7559 3.93555C62.252 4.11133 61.7539 4.32227 61.2617 4.56836C60.7695 4.81445 60.3301 5.10156 59.9434 5.42969C59.5566 5.75781 59.2402 6.12695 58.9941 6.53711C58.7598 6.93555 58.6426 7.36914 58.6426 7.83789C58.6426 8.21289 58.6895 8.51172 58.7832 8.73438C58.8887 8.95703 59.0059 9.12695 59.1348 9.24414C59.2637 9.34961 59.3926 9.41992 59.5215 9.45508C59.6621 9.47852 59.7617 9.49023 59.8203 9.49023C60.1133 9.49023 60.3535 9.44336 60.541 9.34961C60.7285 9.24414 60.8984 9.13867 61.0508 9.0332C61.2031 8.91602 61.3438 8.81055 61.4727 8.7168C61.6133 8.61133 61.7715 8.55859 61.9473 8.55859C62.0879 8.55859 62.2344 8.59375 62.3867 8.66406C62.5508 8.72266 62.6973 8.82227 62.8262 8.96289C62.9668 9.10352 63.084 9.29102 63.1777 9.52539C63.2715 9.74805 63.3184 10.0234 63.3184 10.3516C63.3184 10.8203 63.2246 11.2305 63.0371 11.582C62.8613 11.9219 62.627 12.2031 62.334 12.4258C62.0527 12.6484 61.7246 12.8184 61.3496 12.9355C60.9863 13.041 60.623 13.0938 60.2598 13.0938C59.6973 13.0938 59.1875 13 58.7305 12.8125C58.2852 12.6133 57.9043 12.3438 57.5879 12.0039C57.2715 11.6641 57.0312 11.2715 56.8672 10.8262C56.7031 10.3691 56.6211 9.87695 56.6211 9.34961C56.6211 7.97852 56.9961 6.8125 57.7461 5.85156C58.5078 4.89062 59.5449 4.10547 60.8574 3.49609C62.1699 2.875 63.6992 2.42383 65.4453 2.14258C67.1914 1.86133 69.0605 1.7207 71.0527 1.7207C71.8613 1.7207 72.7051 1.73242 73.584 1.75586C74.4629 1.76758 75.2891 1.79102 76.0625 1.82617C76.8477 1.86133 77.5391 1.90234 78.1367 1.94922C78.7344 1.99609 79.1562 2.04883 79.4023 2.10742C79.6367 2.16602 79.8242 2.23047 79.9648 2.30078C80.1055 2.37109 80.2109 2.45313 80.2812 2.54688C80.3516 2.64062 80.3984 2.75195 80.4219 2.88086C80.4453 2.99805 80.457 3.13867 80.457 3.30273C80.457 3.44336 80.4395 3.60156 80.4043 3.77734C80.3691 3.94141 80.3164 4.09961 80.2461 4.25195C80.1758 4.39258 80.0879 4.51562 79.9824 4.62109C79.877 4.72656 79.748 4.7793 79.5957 4.7793C79.502 4.7793 79.3965 4.73828 79.2793 4.65625C79.1738 4.57422 79.0156 4.46875 78.8047 4.33984C78.6055 4.21094 78.3301 4.07617 77.9785 3.93555C77.6387 3.79492 77.1758 3.66016 76.5898 3.53125C76.0156 3.40234 75.2949 3.29688 74.4277 3.21484C73.5723 3.13281 72.5352 3.0918 71.3164 3.0918V14.3594H78.2598V15.9062ZM80.123 19C80.123 17.4648 80.3457 16.123 80.791 14.9746C81.2363 13.8145 81.8281 12.8477 82.5664 12.0742C83.3164 11.3008 84.1836 10.7207 85.168 10.334C86.1523 9.94727 87.1836 9.75391 88.2617 9.75391C89.3398 9.75391 90.3711 9.93555 91.3555 10.2988C92.3398 10.6504 93.2012 11.1953 93.9395 11.9336C94.6895 12.6719 95.2871 13.6094 95.7324 14.7461C96.1777 15.8711 96.4004 17.207 96.4004 18.7539C96.4004 20.2891 96.1777 21.6484 95.7324 22.832C95.2871 24.0156 94.6895 25.0117 93.9395 25.8203C93.2012 26.6289 92.3398 27.2441 91.3555 27.666C90.3711 28.0762 89.3398 28.2812 88.2617 28.2812C87.1836 28.2812 86.1523 28.0879 85.168 27.7012C84.1836 27.3027 83.3164 26.7168 82.5664 25.9434C81.8281 25.1699 81.2363 24.2031 80.791 23.043C80.3457 21.8828 80.123 20.5352 80.123 19ZM90.9336 18.8242C90.9336 17.8867 90.8984 16.9844 90.8281 16.1172C90.7695 15.2383 90.6465 14.459 90.459 13.7793C90.2715 13.0996 90.002 12.5605 89.6504 12.1621C89.2988 11.752 88.8359 11.5469 88.2617 11.5469C87.6875 11.5469 87.2246 11.7637 86.873 12.1973C86.5215 12.6191 86.252 13.1816 86.0645 13.8848C85.877 14.5762 85.7539 15.3672 85.6953 16.2578C85.6367 17.1484 85.6074 18.0625 85.6074 19C85.6074 19.9375 85.6367 20.8574 85.6953 21.7598C85.7539 22.6504 85.877 23.4473 86.0645 24.1504C86.252 24.8535 86.5215 25.4219 86.873 25.8555C87.2246 26.2773 87.6875 26.4883 88.2617 26.4883C88.8359 26.4883 89.2988 26.2656 89.6504 25.8203C90.002 25.375 90.2715 24.7891 90.459 24.0625C90.6465 23.3359 90.7695 22.5156 90.8281 21.6016C90.8984 20.6875 90.9336 19.7617 90.9336 18.8242ZM98.5801 19C98.5801 17.4648 98.8027 16.123 99.248 14.9746C99.6934 13.8145 100.285 12.8477 101.023 12.0742C101.773 11.3008 102.641 10.7207 103.625 10.334C104.609 9.94727 105.641 9.75391 106.719 9.75391C107.797 9.75391 108.828 9.93555 109.812 10.2988C110.797 10.6504 111.658 11.1953 112.396 11.9336C113.146 12.6719 113.744 13.6094 114.189 14.7461C114.635 15.8711 114.857 17.207 114.857 18.7539C114.857 20.2891 114.635 21.6484 114.189 22.832C113.744 24.0156 113.146 25.0117 112.396 25.8203C111.658 26.6289 110.797 27.2441 109.812 27.666C108.828 28.0762 107.797 28.2812 106.719 28.2812C105.641 28.2812 104.609 28.0879 103.625 27.7012C102.641 27.3027 101.773 26.7168 101.023 25.9434C100.285 25.1699 99.6934 24.2031 99.248 23.043C98.8027 21.8828 98.5801 20.5352 98.5801 19ZM109.391 18.8242C109.391 17.8867 109.355 16.9844 109.285 16.1172C109.227 15.2383 109.104 14.459 108.916 13.7793C108.729 13.0996 108.459 12.5605 108.107 12.1621C107.756 11.752 107.293 11.5469 106.719 11.5469C106.145 11.5469 105.682 11.7637 105.33 12.1973C104.979 12.6191 104.709 13.1816 104.521 13.8848C104.334 14.5762 104.211 15.3672 104.152 16.2578C104.094 17.1484 104.064 18.0625 104.064 19C104.064 19.9375 104.094 20.8574 104.152 21.7598C104.211 22.6504 104.334 23.4473 104.521 24.1504C104.709 24.8535 104.979 25.4219 105.33 25.8555C105.682 26.2773 106.145 26.4883 106.719 26.4883C107.293 26.4883 107.756 26.2656 108.107 25.8203C108.459 25.375 108.729 24.7891 108.916 24.0625C109.104 23.3359 109.227 22.5156 109.285 21.6016C109.355 20.6875 109.391 19.7617 109.391 18.8242ZM127.918 18.4551C127.918 18.3262 127.918 18.0684 127.918 17.6816C127.918 17.2832 127.906 16.832 127.883 16.3281C127.859 15.8125 127.818 15.2676 127.76 14.6934C127.701 14.1191 127.607 13.5859 127.479 13.0938C127.197 12.7305 126.881 12.4082 126.529 12.127C126.189 11.834 125.75 11.6875 125.211 11.6875C124.297 11.6875 123.623 12.2852 123.189 13.4805C122.768 14.6758 122.557 16.5273 122.557 19.0352C122.557 20.1367 122.604 21.1445 122.697 22.0586C122.803 22.9727 122.955 23.7578 123.154 24.4141C123.365 25.0703 123.629 25.5801 123.945 25.9434C124.273 26.3066 124.66 26.4883 125.105 26.4883C126.98 26.4883 127.918 23.8105 127.918 18.4551ZM127.707 10.7207C127.484 9.54883 127.174 8.45898 126.775 7.45117C126.377 6.43164 125.896 5.55273 125.334 4.81445C124.783 4.07617 124.15 3.49609 123.436 3.07422C122.732 2.65234 121.971 2.44141 121.15 2.44141C120.682 2.44141 120.254 2.5 119.867 2.61719C119.492 2.73438 119.164 2.875 118.883 3.03906C118.602 3.19141 118.367 3.34375 118.18 3.49609C118.004 3.63672 117.875 3.74219 117.793 3.8125L117.336 3.19727C117.617 2.83398 117.957 2.49414 118.355 2.17773C118.766 1.86133 119.211 1.5918 119.691 1.36914C120.172 1.14648 120.676 0.970703 121.203 0.841797C121.742 0.712891 122.275 0.648438 122.803 0.648438C124.537 0.648438 126.061 1.0293 127.373 1.79102C128.686 2.54102 129.781 3.60742 130.66 4.99023C131.539 6.37305 132.201 8.04297 132.646 10C133.092 11.957 133.314 14.1309 133.314 16.5215C133.314 18.4551 133.115 20.1543 132.717 21.6191C132.33 23.084 131.773 24.3145 131.047 25.3105C130.32 26.2949 129.436 27.0391 128.393 27.543C127.361 28.0352 126.195 28.2812 124.895 28.2812C123.992 28.2812 123.072 28.123 122.135 27.8066C121.209 27.4785 120.365 26.9512 119.604 26.2246C118.854 25.498 118.238 24.5488 117.758 23.377C117.277 22.1934 117.037 20.7461 117.037 19.0352C117.037 17.5586 117.242 16.2461 117.652 15.0977C118.074 13.9492 118.637 12.9824 119.34 12.1973C120.043 11.4004 120.857 10.7969 121.783 10.3867C122.709 9.96484 123.688 9.75391 124.719 9.75391C125.117 9.75391 125.475 9.78906 125.791 9.85938C126.107 9.91797 126.383 9.99414 126.617 10.0879C126.852 10.1816 127.057 10.2871 127.232 10.4043C127.408 10.5098 127.566 10.6152 127.707 10.7207Z" fill="#F79E1B"/>
</svg>
